<svg width="201" height="35" viewBox="0 0 201 35" fill="none" xmlns="http://www.w3.org/2000/svg">
<path d="M66.2507 7.56516H69.3567C69.7091 7.56418 70.0599 7.61298 70.3987 7.71014C70.7271 7.80415 71.0393 7.94744 71.3247 8.13513C71.6075 8.32146 71.8638 8.54516 72.0867 8.80014C72.3087 9.05241 72.488 9.33917 72.6177 9.64914C73.3637 11.4625 74.1161 13.2598 74.8747 15.0411C75.6334 16.8225 76.3921 18.6198 77.1507 20.4331C77.2808 20.7287 77.3716 21.04 77.4207 21.3591C77.4594 21.6425 77.485 21.8931 77.4977 22.1111C77.5313 21.6847 77.6155 21.2637 77.7487 20.8571C77.9084 20.3587 78.095 19.8694 78.3077 19.3911L82.4167 9.62915C82.532 9.33928 82.7017 9.07417 82.9167 8.84814C83.1518 8.59455 83.4175 8.37117 83.7077 8.18314C84.0053 7.98926 84.3262 7.83371 84.6627 7.72015C84.9885 7.60677 85.3307 7.54796 85.6757 7.54614H88.7817L86.5817 12.7741L89.0317 18.6001C89.289 19.2048 89.5397 19.7998 89.7837 20.3851C90.0127 20.9077 90.1497 21.4659 90.1887 22.0352C90.2014 21.9325 90.2174 21.8135 90.2367 21.6781C90.2561 21.5428 90.2913 21.3725 90.3427 21.1671C90.4074 20.919 90.4848 20.6743 90.5747 20.4341C90.6773 20.1515 90.8187 19.8042 90.9987 19.3922L95.1127 9.63013C95.2271 9.34166 95.3939 9.07689 95.6047 8.84915C95.8347 8.59413 96.0973 8.37052 96.3857 8.18414C96.6833 7.99029 97.0042 7.83472 97.3407 7.72113C97.6665 7.60774 98.0088 7.54897 98.3537 7.54715H101.46L92.9327 27.8232H87.4537L84.5017 20.3381C84.399 20.0681 84.3091 19.7918 84.2317 19.5092C84.1545 19.2263 84.1154 18.9344 84.1157 18.6411C84.1135 18.3592 84.1591 18.0788 84.2507 17.8121C84.006 18.5068 83.5527 19.6835 82.8907 21.3421C82.2287 23.0008 81.3444 25.1615 80.2377 27.8241H74.7587L66.2507 7.56516Z" fill="white"/>
<path d="M102.81 7.56202H106.936C107.002 7.56202 107.099 7.73869 107.226 8.09202C107.387 8.58551 107.503 9.0926 107.573 9.60703C107.705 9.21105 107.954 8.86441 108.287 8.61302C108.668 8.31114 109.09 8.06439 109.541 7.88001C110.017 7.6808 110.511 7.52906 111.017 7.42701C111.464 7.33096 111.919 7.27938 112.377 7.27302H112.454C113.829 7.26194 115.191 7.54458 116.448 8.10203C117.656 8.63704 118.75 9.40032 119.67 10.35C121.566 12.327 122.622 14.962 122.617 17.7014C122.611 20.4408 121.545 23.0715 119.641 25.041C118.711 25.9867 117.607 26.7433 116.39 27.269C115.124 27.8196 113.757 28.0989 112.377 28.089C111.576 28.0865 110.782 27.9562 110.023 27.703C109.228 27.4404 108.498 27.0131 107.881 26.449V34.359H102.807L102.81 7.56202ZM112.36 12.308C111.477 12.3037 110.607 12.5123 109.823 12.916C109.054 13.3025 108.389 13.868 107.884 14.565V20.777C108.398 21.4815 109.072 22.0547 109.85 22.4503C110.627 22.8459 111.487 23.0527 112.36 23.054C113.07 23.0612 113.774 22.9163 114.424 22.629C115.041 22.3554 115.599 21.9622 116.064 21.472C116.531 20.9766 116.901 20.3975 117.154 19.765C117.681 18.4226 117.681 16.9304 117.154 15.588C116.904 14.954 116.534 14.3744 116.064 13.881C115.596 13.3958 115.04 13.006 114.424 12.733C113.774 12.4469 113.07 12.303 112.36 12.311V12.308Z" fill="white"/>
<path d="M129.742 7.56199C129.811 7.7106 129.888 7.85545 129.973 7.99598C130.109 8.25399 130.176 8.54328 130.166 8.835V9.99199C130.287 9.64934 130.485 9.33906 130.745 9.085C131.023 8.81003 131.338 8.5745 131.681 8.38499C132.047 8.18024 132.431 8.00922 132.829 7.874C133.224 7.73724 133.627 7.6214 134.035 7.52699C134.4 7.44157 134.771 7.37714 135.144 7.334C135.438 7.29864 135.734 7.27926 136.031 7.27598C137.402 7.26437 138.76 7.54387 140.015 8.09599C141.214 8.62264 142.296 9.38352 143.198 10.334C144.101 11.2972 144.814 12.4231 145.298 13.652C146.314 16.254 146.314 19.143 145.298 21.745C144.812 22.9705 144.1 24.0932 143.198 25.054C142.296 26.0045 141.214 26.7654 140.015 27.292C138.326 28.0285 136.464 28.2759 134.642 28.006C134.133 27.9286 133.635 27.7944 133.157 27.606C132.621 27.3947 132.112 27.1194 131.642 26.786C131.091 26.393 130.595 25.9289 130.166 25.406V34.628H127.021V7.56199H129.742ZM136.031 25.022C136.994 25.0335 137.948 24.8395 138.831 24.453C139.66 24.0876 140.405 23.5556 141.02 22.89C141.641 22.2108 142.126 21.4184 142.448 20.556C143.129 18.7067 143.129 16.6752 142.448 14.826C142.126 13.9636 141.641 13.1712 141.02 12.492C140.405 11.8266 139.66 11.2946 138.831 10.929C137.948 10.5426 136.994 10.3486 136.031 10.36C134.939 10.3598 133.859 10.5831 132.857 11.016C131.848 11.4442 130.933 12.0671 130.166 12.849V22.032C130.511 22.5047 130.914 22.9324 131.366 23.305C131.806 23.6719 132.289 23.9857 132.803 24.24C133.311 24.4909 133.844 24.6851 134.395 24.819C134.93 24.9528 135.479 25.022 136.031 25.025V25.022Z" fill="white"/>
<path d="M148.744 17.6939C148.736 16.3045 149.015 14.9285 149.564 13.6519C150.626 11.1499 152.618 9.15794 155.12 8.09595C156.402 7.55535 157.778 7.27686 159.17 7.27686C160.561 7.27686 161.938 7.55535 163.22 8.09595C165.722 9.15777 167.714 11.1498 168.776 13.6519C169.317 14.9337 169.595 16.3108 169.595 17.702C169.595 19.0931 169.317 20.4702 168.776 21.752C167.714 24.2542 165.722 26.2463 163.22 27.308C161.938 27.8487 160.561 28.1272 159.17 28.1272C157.778 28.1272 156.401 27.8487 155.12 27.308C152.618 26.2461 150.625 24.2541 149.564 21.752C149.014 20.4701 148.735 19.0886 148.744 17.6939ZM151.831 17.6939C151.824 18.6786 152.021 19.654 152.41 20.559C152.78 21.4302 153.314 22.2224 153.983 22.8929C154.65 23.559 155.439 24.0898 156.308 24.456C157.214 24.8317 158.186 25.0251 159.168 25.0251C160.149 25.0251 161.121 24.8317 162.028 24.456C163.593 23.8007 164.882 22.623 165.675 21.1236C166.469 19.6242 166.718 17.8959 166.38 16.2334C166.042 14.5709 165.138 13.0771 163.822 12.0066C162.506 10.9361 160.859 10.3552 159.163 10.3629C158.182 10.3558 157.211 10.5495 156.308 10.9319C155.439 11.2984 154.65 11.8291 153.983 12.495C153.314 13.1656 152.78 13.9578 152.41 14.8289C152.021 15.7339 151.824 16.7093 151.831 17.6939Z" fill="white"/>
<path d="M172.397 17.6939C172.389 16.3045 172.668 14.9285 173.217 13.6519C174.279 11.1499 176.271 9.15794 178.773 8.09595C180.054 7.55535 181.431 7.27686 182.823 7.27686C184.214 7.27686 185.591 7.55535 186.873 8.09595C189.375 9.15777 191.367 11.1498 192.429 13.6519C192.969 14.9337 193.248 16.3108 193.248 17.702C193.248 19.0931 192.969 20.4702 192.429 21.752C191.367 24.2542 189.375 26.2463 186.873 27.308C185.591 27.8487 184.214 28.1272 182.823 28.1272C181.431 28.1272 180.054 27.8487 178.773 27.308C176.271 26.2461 174.278 24.2541 173.217 21.752C172.667 20.4701 172.388 19.0886 172.397 17.6939ZM175.484 17.6939C175.477 18.6786 175.674 19.654 176.063 20.559C176.433 21.4301 176.967 22.2223 177.635 22.8929C178.302 23.5589 179.091 24.0896 179.96 24.456C180.863 24.8386 181.834 25.0322 182.815 25.025C184.02 25.0247 185.207 24.7272 186.271 24.1588C187.334 23.5905 188.241 22.7687 188.911 21.7664C189.581 20.7641 189.994 19.612 190.112 18.4122C190.231 17.2124 190.052 16.0018 189.591 14.8876C189.131 13.7734 188.403 12.7899 187.471 12.0242C186.54 11.2585 185.434 10.7341 184.252 10.4976C183.07 10.261 181.848 10.3195 180.693 10.6678C179.539 11.0162 178.489 11.6438 177.635 12.495C176.967 13.1657 176.433 13.9579 176.063 14.8289C175.674 15.7339 175.477 16.7093 175.484 17.6939Z" fill="white"/>
<path d="M201.007 0.176025V27.822H197.862V0.176025H201.007Z" fill="white"/>
<path d="M26.9907 15.011L16.3707 4.39096C14.5722 2.59258 12.133 1.58228 9.58969 1.58228C7.04634 1.58228 4.60715 2.59258 2.80869 4.39096C1.01031 6.18942 0 8.62862 0 11.172C0 13.7153 1.01031 16.1545 2.80869 17.953L13.4287 28.573C15.2272 30.3713 17.6663 31.3817 20.2097 31.3817C22.753 31.3817 25.1922 30.3713 26.9907 28.573C28.7891 26.7745 29.7994 24.3353 29.7994 21.792C29.7994 19.2486 28.7891 16.8094 26.9907 15.011Z" fill="#5CC9F6"/>
<path d="M57.9507 11.205C56.1522 9.40658 53.713 8.39624 51.1697 8.39624C48.6263 8.39624 46.1871 9.40658 44.3887 11.205C43.4981 12.0955 42.7916 13.1527 42.3096 14.3163C41.8276 15.4799 41.5795 16.727 41.5795 17.9865C41.5795 19.2459 41.8276 20.493 42.3096 21.6566C42.7916 22.8202 43.4981 23.8774 44.3887 24.7679C46.1871 26.5663 48.6263 27.5766 51.1697 27.5766C53.713 27.5766 56.1522 26.5663 57.9507 24.7679C58.8413 23.8774 59.5478 22.8202 60.0298 21.6566C60.5118 20.493 60.7599 19.2459 60.7599 17.9865C60.7599 16.727 60.5118 15.4799 60.0298 14.3163C59.5478 13.1527 58.8413 12.0955 57.9507 11.205Z" fill="#FA8807"/>
<path d="M17.3487 11.1771L13.3837 15.1421L13.3667 15.1241C11.8169 16.6341 9.80206 17.5758 7.64949 17.796C5.49692 18.0162 3.33313 17.502 1.5097 16.3371C1.88348 16.921 2.31935 17.4629 2.80969 17.9531L7.0897 22.2331L7.1327 22.2171L13.4797 28.5641L30.8667 11.1771C29.9792 10.2893 28.9255 9.58502 27.7658 9.10452C26.606 8.62403 25.363 8.37671 24.1077 8.37671C22.8524 8.37671 21.6093 8.62403 20.4496 9.10452C19.2899 9.58502 18.2362 10.2893 17.3487 11.1771Z" fill="#00AEEB"/>
<path d="M51.1287 4.47598L51.1197 4.46698C50.2436 3.56168 49.1949 2.84126 48.0355 2.34826C46.8762 1.85526 45.6298 1.59969 44.37 1.59671C43.1101 1.59372 41.8625 1.84336 40.7009 2.33087C39.5392 2.81837 38.4871 3.53386 37.6067 4.43499L20.2287 21.813C18.5371 23.5034 16.2751 24.5007 13.8861 24.6095C11.4972 24.7183 9.15388 23.9306 7.3157 22.401L13.4797 28.565L13.4867 28.559C15.2829 30.3551 17.719 31.3642 20.2592 31.3642C22.7994 31.3642 25.2355 30.3551 27.0317 28.559L43.9567 11.634L43.9847 11.642C44.1157 11.494 44.2497 11.348 44.3917 11.206C45.5737 10.0227 47.0448 9.16932 48.6587 8.73074C50.2727 8.29216 51.9734 8.28363 53.5917 8.70599C53.1525 7.10582 52.3035 5.64783 51.1287 4.47598Z" fill="#0080CA"/>
<path d="M53.5857 8.70708C51.9674 8.28472 50.2667 8.29325 48.6527 8.73183C47.0387 9.17041 45.5677 10.0238 44.3857 11.2071C44.2437 11.3491 44.1097 11.4951 43.9787 11.6431L43.9517 11.6351L27.0267 28.5601C26.9957 28.5911 26.9637 28.6191 26.9337 28.6491L26.9447 28.6611C28.7431 30.4595 31.1823 31.4698 33.7257 31.4698C36.269 31.4698 38.7082 30.4595 40.5067 28.6611L51.1267 18.0411C52.3262 16.8422 53.1859 15.3464 53.618 13.7065C54.05 12.0665 54.0388 10.3413 53.5857 8.70708Z" fill="#EE5913"/>
<path d="M25.0227 7.53793C25.8666 7.53793 26.5507 6.85382 26.5507 6.00993C26.5507 5.16604 25.8666 4.48193 25.0227 4.48193C24.1788 4.48193 23.4947 5.16604 23.4947 6.00993C23.4947 6.85382 24.1788 7.53793 25.0227 7.53793Z" fill="#5CC9F6"/>
<path d="M21.6497 4.56693C22.1909 4.56693 22.6297 4.12817 22.6297 3.58693C22.6297 3.04569 22.1909 2.60693 21.6497 2.60693C21.1085 2.60693 20.6697 3.04569 20.6697 3.58693C20.6697 4.12817 21.1085 4.56693 21.6497 4.56693Z" fill="#5CC9F6"/>
<path d="M23.8137 1.96C24.3549 1.96 24.7937 1.52124 24.7937 0.98C24.7937 0.438761 24.3549 0 23.8137 0C23.2725 0 22.8337 0.438761 22.8337 0.98C22.8337 1.52124 23.2725 1.96 23.8137 1.96Z" fill="#5CC9F6"/>
</svg>
